# xmcd
#
# Track frame offsets: 
#        182
#        17270
#        31657
#        45707
#        62220
#        76182
#        91332
#        109457
#        125332
#        137195
#        147357
#        161620
#        174345
#        190782
#        204195
#
# Disc length: 2930 seconds
#
# Revision: 3
# Processed by: cddbd v1.5.2PL0 Copyright (c) Steve Scherf et al.
# Submitted via: ExactAudioCopy v0.99pb4
#
DISCID=bf0b700f
DTITLE=Billie Holiday - Lady Sings The Blues
DYEAR=1990
DGENRE=Jazz
TTITLE0=Lady Sings The Blues
TTITLE1=Travelin' Light
TTITLE2=I Must Have That Man
TTITLE3=Some Other Spring
TTITLE4=Strange Fruit
TTITLE5=No Good Man
TTITLE6=God Bless The Child
TTITLE7=Good Morning Heartache
TTITLE8=Love Me Or Leave Me
TTITLE9=Too Marvelous For Words
TTITLE10=Willow Weep For Me
TTITLE11=I Thought About You
TTITLE12=P.S. I Love You
TTITLE13=Softly
TTITLE14=Stormy Blues
EXTD=Vocal-blues
EXTT0=
EXTT1=
EXTT2=
EXTT3=
EXTT4=
EXTT5=
EXTT6=
EXTT7=
EXTT8=
EXTT9=
EXTT10=
EXTT11=
EXTT12=
EXTT13=
EXTT14=
PLAYORDER=
